inDegrees=no
num_controls=7
num_derivatives=13
num_iterations=78
num_multipliers=7
num_parameters=0
num_slacks=7
num_states=26
objective=0.453041
objective_accelerations=0.048168
objective_balance=0.001020
objective_effort=0.037520
objective_height=0.360700
objective_ligament=0.005632
solver_duration=887.233137
status=Solve_Succeeded
success=true
DataType=double
version=3
OpenSimVersion=4.5
endheader
time	/jointset/ground_pelvis/pelvis_tilt/value	/jointset/ground_pelvis/pelvis_tx/value	/jointset/ground_pelvis/pelvis_ty/value	/jointset/hip_r/hip_flexion_r/value	/jointset/hip_r/hip_adduction_r/value	/jointset/hip_r/hip_rotation_r/value	/jointset/back/lumbar_extension/value	/jointset/patellofemoral_r/patellar_flexion_r/value	/jointset/knee_r/knee_flexion_r/value	/jointset/knee_r/knee_adduction_r/value	/jointset/knee_r/knee_rotation_r/value	/jointset/ankle_r/ankle_angle_r/value	/jointset/subtalar_r/subtalar_angle_r/value	/jointset/ground_pelvis/pelvis_tilt/speed	/jointset/ground_pelvis/pelvis_tx/speed	/jointset/ground_pelvis/pelvis_ty/speed	/jointset/hip_r/hip_flexion_r/speed	/jointset/hip_r/hip_adduction_r/speed	/jointset/hip_r/hip_rotation_r/speed	/jointset/back/lumbar_extension/speed	/jointset/patellofemoral_r/patellar_flexion_r/speed	/jointset/knee_r/knee_flexion_r/speed	/jointset/knee_r/knee_adduction_r/speed	/jointset/knee_r/knee_rotation_r/speed	/jointset/ankle_r/ankle_angle_r/speed	/jointset/subtalar_r/subtalar_angle_r/speed	/forceset/tau_hip_flexion_r	/forceset/tau_hip_adduction_r	/forceset/tau_hip_rotation_r	/forceset/tau_knee_flexion_r	/forceset/tau_ankle_angle_r	/forceset/tau_subtalar_angle_r	/forceset/tau_lumbar_extension	lambda_cid13_p0	lambda_cid14_p0	lambda_cid14_p1	lambda_cid14_p2	lambda_cid14_p3	lambda_cid14_p4	lambda_cid14_p5	/jointset/ground_pelvis/pelvis_tilt/accel	/jointset/ground_pelvis/pelvis_tx/accel	/jointset/ground_pelvis/pelvis_ty/accel	/jointset/hip_r/hip_flexion_r/accel	/jointset/hip_r/hip_adduction_r/accel	/jointset/hip_r/hip_rotation_r/accel	/jointset/back/lumbar_extension/accel	/jointset/patellofemoral_r/patellar_flexion_r/accel	/jointset/knee_r/knee_flexion_r/accel	/jointset/knee_r/knee_adduction_r/accel	/jointset/knee_r/knee_rotation_r/accel	/jointset/ankle_r/ankle_angle_r/accel	/jointset/subtalar_r/subtalar_angle_r/accel	gamma_cid13_p0	gamma_cid14_p0	gamma_cid14_p1	gamma_cid14_p2	gamma_cid14_p3	gamma_cid14_p4	gamma_cid14_p5
1	-0.2239653020376621	-0.01340970650852181	0.6339390963067613	1.423563636642561	-0.2386953706939729	-0.0862295050299219	-0.7853978508516105	1.516302910137877	1.516302910137874	-0.1745326548657729	0.1745099267322451	0.4362494539788612	0.1750254395695988	0.06942446827985421	0.005653336152619167	0.01676017825786147	-0.1042547324799318	-0.000521956996126151	-0.003506556373616099	0.0001536795972062582	-0.02146962833607368	-0.02146962833607327	0.003048751539357064	-0.001100730545142405	0.01339132682714048	0.005980139621783483	-0.3302409335712223	0.04076657799565214	0.01016774495652304	-0.4681980190969636	-0.01251184587086068	-0.0004510642514938709	0.3570575729313162	-0.04098694477109104	-56.53524914609126	-15.12955498159467	8.584888395537604	8.23980329602152	-771.54611672339	60.30067094004822	1.267120676846003	0.1432696915710057	1.857612067657159	-5.524836765026687	0.2837584822286874	-0.7058361229357032	0.01914481713182065	-5.142676978059993	-5.142676978059968	0.5663624824336301	-0.0552964655291589	-1.026295166880485	0.02584230908114878	-2.171652255248459e-09	-1.385529030839068e-09	5.158223304318084e-09	-1.497435136693422e-08	-2.084909413453808e-09	-2.241020175348987e-09	-1.063661991223156e-08
1.01	-0.223208629388335	-0.01334588392046692	0.634199344589395	1.422246062544485	-0.2386867852051102	-0.08629597004435638	-0.7853931753243878	1.515831902035544	1.515831902035542	-0.1744695414144334	0.1744963729743581	0.4363321456966606	0.1750857597168725	0.08188091650779462	0.007126851093710683	0.03527848300357762	-0.1592257150968431	0.002204506810147467	-0.009643978085159375	0.0009267238234598905	-0.07269313960323701	-0.07269313960323638	0.009758672658522063	-0.001557904280544657	0.003160125913679675	0.006021441441204377	-0.3306678204758248	0.04073439431035906	0.01022769583375667	-0.4679484810084862	-0.01280860936090288	-0.000412514870978037	0.3577359688734305	-0.04098454413964707	-56.63521828669629	-15.12195024860647	8.574119504802388	8.108334955417888	-771.7782980641668	60.30021414593135	1.230535483191413	0.1517420246830168	1.84728890327305	-5.478072944254686	0.261908144298842	-0.5463280768093356	0.1281789200588981	-5.106360219871663	-5.10636021987163	0.751020484655633	-0.03310892284003834	-1.019566858656262	-0.01608882550368031	-5.270217752093406e-10	1.923095815293539e-09	2.835469251897307e-08	-1.284204564613808e-09	-4.060097491636581e-09	-7.372973346668302e-09	2.442892087556342e-08
1.02	-0.222328266539244	-0.01326685625714006	0.6346444457645344	1.420379809833394	-0.2386519715152904	-0.08641953585221489	-0.7853764104158896	1.514849824416774	1.514849824416773	-0.1743337860402992	0.1744798112600582	0.436312918544336	0.1751446202935651	0.09416250823266858	0.008694351207013952	0.0537307567590592	-0.2139904550830084	0.00472368319530527	-0.0149267150585338	0.002571555837177953	-0.1236835316234876	-0.1236835316234869	0.01757713609759442	-0.00170232182771497	-0.006992447202876619	0.005688225505573547	-0.33109470738043	0.04070221062506788	0.01028764671101245	-0.4676989429200073	-0.01310537285094481	-0.0003739654904589461	0.3584143648155417	-0.04098946965650525	-56.74288501696416	-15.11119765954509	8.557713264717764	7.979469214206587	-772.135168549086	60.33463011031692	1.232149376232706	0.1620667260133602	1.844405869610245	-5.483588238877483	0.2423009980054998	-0.5348991753019758	0.1935023746244947	-5.096053128677452	-5.096053128677444	0.7880709464150945	0.007254772117292393	-1.01056960749958	-0.04906124192924056	1.180602860972487e-08	1.855993938136599e-08	7.682748046181812e-08	8.667111314970657e-08	-1.077322132103559e-08	-1.87712306782256e-08	1.624945563376589e-07
1.03	-0.2213261413890765	-0.0131717202840587	0.635273733310566	1.417967133558539	-0.2385925875737829	-0.08659381396652258	-0.785338849745715	1.513358578613102	1.5133585786131	-0.1741169950829118	0.1744627764709678	0.4361924024644618	0.1751990295627993	0.1062136964322995	0.01034491751864055	0.07211495959551395	-0.2684894505449309	0.007161415917822509	-0.020003849272455	0.005087047846385395	-0.1745699903279942	-0.1745699903279933	0.02569304664242481	-0.001714543333759064	-0.01711291246631024	0.005209439072838194	-0.3311968859158702	0.04075363000696786	0.01038900059274651	-0.4674156788447438	-0.01327495916395588	-0.0003732283577940041	0.3588492739109183	-0.04100792661819787	-56.80411405289228	-15.11207565402004	8.546976288223394	7.892326395801261	-772.3125465578878	60.35078059743485	1.184286916830014	0.1683591522668055	1.833652446756029	-5.424745971958107	0.2457785647664236	-0.5053465332309039	0.3025430611379532	-5.085601348900938	-5.085601348900886	0.8101443197873091	-0.006899725868120597	-1.013105437878528	-0.04487506367044664	2.424814450389277e-08	3.533278517927464e-08	1.255581900243387e-07	1.753842387304763e-07	-1.753469143361031e-08	-3.023342988896904e-08	3.016112131739827e-07
1.04	-0.2202049676819164	-0.01305971713415503	0.6360865078761803	1.415011129174637	-0.2385085724739723	-0.08682110862072961	-0.7852717400660282	1.511358336400871	1.511358336400871	-0.1738216863778178	0.1744453316440335	0.4359706176415282	0.1752491334237613	0.1179722196320024	0.01206778657147672	0.09042816067566843	-0.3226560768911916	0.009649914856003467	-0.02553002303812696	0.008481357738352952	-0.2254828133350511	-0.2254828133350503	0.03328068563806671	-0.001784329395915021	-0.02724619581427613	0.004827143851110345	-0.3312990644513297	0.04080504938886573	0.01049035447445552	-0.4671324147694854	-0.0134445454769658	-0.0003724912251317863	0.3592841830062761	-0.04103364247827353	-56.87294691186361	-15.1095022369952	8.530225610152666	7.806144834759085	-772.6155366452977	60.40284822916112	1.173616376247104	0.1765272742552895	1.830205518350189	-5.417114415745128	0.2524542411382172	-0.6247070856521628	0.3692659511764705	-5.10132598918752	-5.101325989187555	0.6824166365773979	-0.004258139105018228	-1.013133224406012	-0.02976299972777866	2.615370057416467e-08	3.942102874499779e-08	1.433989856579965e-07	1.910968669861101e-07	-2.118634056162734e-08	-3.371351687941846e-08	3.330711088131824e-07
1.05	-0.2189678280874676	-0.01293009026098962	0.6370819407996392	1.411515502153305	-0.2383996311016322	-0.0871046409362377	-0.7851659144757216	1.508849141237169	1.508849141237173	-0.1734516163297429	0.1744271861654548	0.4356473442526385	0.1752954157552312	0.1293877601282817	0.01387297126026185	0.1086344031574822	-0.3763721152639993	0.01212584666377067	-0.03111728587672393	0.01287228454446914	-0.2763292734547665	-0.2763292734547667	0.0408046178919905	-0.001828582195880141	-0.03742002308782146	0.00439761667670458	-0.3312523670259664	0.04080342960120813	0.01065836220100165	-0.4664654079628182	-0.01363025931356636	-0.0003708187645359273	0.3596424752358572	-0.04106659101860774	-56.92105433111498	-15.09724751167693	8.505482486655589	7.68801995367912	-772.5591179296489	60.40925032583816	1.115340364592233	0.1848165619757233	1.812223062847311	-5.334258768539234	0.2433117999442964	-0.5168467721423634	0.502284678460295	-5.072269692671922	-5.072269692672012	0.7980712768566174	-0.002026340713794324	-1.021237586670563	-0.05425430194207498	2.772998914993989e-08	4.311287849096522e-08	1.602744714813775e-07	2.045282297003337e-07	-2.474080778387697e-08	-3.694416286298372e-08	3.611667306649726e-07
1.06	-0.2176185695924064	-0.01278195104177907	0.6382587140378658	1.407485632704145	-0.2382663005813452	-0.0874422680579625	-0.7850105238907266	1.505832288738407	1.505832288738407	-0.1730041690076989	0.1744090946608269	0.4352219865694421	0.1753364614698283	0.1403959997555204	0.01577025578050298	0.1266962236292886	-0.4295045624564306	0.01452774444546629	-0.0363489842824759	0.01839435667582676	-0.3270142803468211	-0.3270142803468223	0.0487561404281812	-0.001773534606704932	-0.04766305467503933	0.003779820476493856	-0.3312056696005967	0.04080180981356648	0.01082636992740258	-0.4657984011561674	-0.01381597315016483	-0.0003691463039055548	0.3600007674654441	-0.04110694707243794	-56.97687769909049	-15.08154083076233	8.474702524591764	7.570621310324918	-772.6305528513119	60.45157366212538	1.092156202438941	0.1949472405465071	1.801321116348722	-5.300396179669834	0.2376474359238803	-0.5535941990831948	0.5954950162247273	-5.069035343655364	-5.069035343655359	0.7679346930307792	0.01560193872310538	-1.026974087140489	-0.06741680488880397	3.279582949977519e-08	5.00529950644778e-08	1.838727895907663e-07	2.413101840468128e-07	-2.766213606915799e-08	-4.295664061700463e-08	4.196451887259251e-07
1.07	-0.2161608516011624	-0.01261435193424085	0.6396153756792134	1.402926991235514	-0.2381093740737757	-0.08783020585994172	-0.7847947765317286	1.502309463702768	1.502309463702763	-0.1724747795045192	0.174392090303413	0.4346938342337507	0.1753702738761905	0.1511179274409469	0.01776753308164673	0.1446110176922909	-0.4821601016038589	0.0168424413933311	-0.04115494290776357	0.02489543894170571	-0.3775169144580977	-0.377516914458097	0.05721976668171133	-0.001613804187987217	-0.0579802920678282	0.002944934672282089	-0.3308457243900672	0.04078095924775072	0.01105337496068939	-0.4648774354841768	-0.01389636557212014	-0.0003857821937311248	0.3600805541572791	-0.04115283996287562	-56.97518821682047	-15.0624523056423	8.441941039623552	7.433421458878279	-772.3249128473113	60.45388995487088	1.057771728948999	0.2048069273515299	1.782785598565087	-5.238577539333314	0.2261493420053479	-0.4315284556169057	0.6984634043885942	-5.035813280148919	-5.035813280148595	0.9002706277848566	0.01826311739207998	-1.036028932108383	-0.09711768491527972	3.804728430567754e-08	5.716589178839174e-08	2.078287051621768e-07	2.793341911396887e-07	-3.054978675140876e-08	-4.91170881460498e-08	4.797397550958757e-07
1.08	-0.2145968021975984	-0.01242624226320035	0.6411504306706484	1.397843705423995	-0.2379297468931685	-0.08826368960045916	-0.7845098086355482	1.49828262515896	1.49828262515896	-0.1718578149315612	0.1743771041549611	0.4340621234507817	0.1753946187811651	0.1616622822205601	0.01987236848095836	0.1623748936468315	-0.534433431033443	0.01906787905270761	-0.04545817198767064	0.03223846411234698	-0.4278169819807835	-0.4278169819807811	0.06627115438607407	-0.001369892811429183	-0.06837474413103103	0.001886320198951907	-0.3304857791795293	0.04076010868190933	0.01128037999409665	-0.463956469812176	-0.01397675799408627	-0.0004024180836129783	0.3601603408491199	-0.04120608646331218	-56.98115976549118	-15.03950325283831	8.402621855334274	7.295785909304678	-772.1488891909069	60.49380033116228	1.056641621276237	0.216458860180108	1.771137494656391	-5.223954236100984	0.2197955782261934	-0.4530482900071062	0.7638835971771644	-5.028522025937233	-5.02852202593723	0.8854869831973062	0.03243813029122265	-1.042417021223242	-0.1121625387125137	4.474722449409967e-08	6.671853386126195e-08	2.358305768602867e-07	3.309281732307096e-07	-3.507606667119098e-08	-5.488402542390923e-08	5.536475342471387e-07
1.09	-0.2129282219315849	-0.01221653156576333	0.6428622887668369	1.392239772473147	-0.2377281889330282	-0.08873861799812582	-0.7841471695183326	1.493753823236838	1.493753823236833	-0.1711485438925688	0.1743647835910485	0.4333260719490979	0.1754075106009443	0.1720189963540002	0.02208920018280715	0.1799633285833097	-0.5862696388408303	0.02124259681568005	-0.04952724595572465	0.04043595752588713	-0.4779069609019377	-0.4779069609019359	0.07557337006766968	-0.001103293238139119	-0.07884904930736354	0.0006826567982850542	-0.3298194671496927	0.04073036458168294	0.01154142790031602	-0.4627376160422862	-0.01396746309356776	-0.0004319821722443741	0.3599902829613292	-0.04126569037921341	-56.93145298149669	-15.00965655411886	8.359046810383036	7.131442871648559	-771.56341759883	60.49482056892643	1.019985210155451	0.227201671766827	1.747674713515454	-5.150911550025718	0.216192027614034	-0.3837637350949932	0.8696719426506828	-4.993780029246814	-4.99378002924685	0.9511253162485807	0.02251102438982357	-1.051958695879526	-0.1257891957352247	5.155737552684395e-08	7.645680873242231e-08	2.641402930462976e-07	3.835546534194154e-07	-3.972702490252449e-08	-6.062102170439584e-08	6.286063187187189e-07
